<mxfile host="app.diagrams.net" modified="2021-01-06T13:24:47.293Z" agent="5.0 (Windows)" etag="KKMxvLTDjZ3DnPdS9Yoa" version="14.1.8" type="github">
  <diagram id="nZvlx9XGNHBedg-SJBJo" name="Page-1">
    <mxGraphModel dx="781" dy="444" grid="1" gridSize="10" guides="1" tooltips="1" connect="1" arrows="1" fold="1" page="1" pageScale="1" pageWidth="827" pageHeight="1169" math="0" shadow="0">
      <root>
        <mxCell id="0" />
        <mxCell id="1" parent="0" />
        <mxCell id="-KEvSBrfhPXXnUt3q98G-3" value="" style="rounded=0;whiteSpace=wrap;html=1;rotation=90;" vertex="1" parent="1">
          <mxGeometry x="225" y="92" width="592.5" height="477.5" as="geometry" />
        </mxCell>
        <mxCell id="-KEvSBrfhPXXnUt3q98G-10" value="" style="edgeStyle=orthogonalEdgeStyle;rounded=0;orthogonalLoop=1;jettySize=auto;html=1;entryX=0;entryY=0.5;entryDx=0;entryDy=0;" edge="1" parent="1" source="-KEvSBrfhPXXnUt3q98G-4" target="-KEvSBrfhPXXnUt3q98G-9">
          <mxGeometry relative="1" as="geometry">
            <mxPoint x="523" y="200" as="targetPoint" />
            <Array as="points">
              <mxPoint x="245" y="240" />
              <mxPoint x="245" y="128" />
              <mxPoint x="350" y="128" />
            </Array>
          </mxGeometry>
        </mxCell>
        <mxCell id="-KEvSBrfhPXXnUt3q98G-4" value="&lt;div&gt;Agent de &lt;br&gt;&lt;/div&gt;&lt;div&gt;voyage&lt;br&gt;&lt;/div&gt;" style="shape=umlActor;verticalLabelPosition=bottom;verticalAlign=top;html=1;outlineConnect=0;" vertex="1" parent="1">
          <mxGeometry x="160" y="200" width="40" height="80" as="geometry" />
        </mxCell>
        <mxCell id="-KEvSBrfhPXXnUt3q98G-5" value="&lt;div&gt;Réserver une chambre&lt;/div&gt;&lt;div&gt;D’hôtel &lt;br&gt;&lt;/div&gt;" style="ellipse;whiteSpace=wrap;html=1;" vertex="1" parent="1">
          <mxGeometry x="425.25" y="210" width="196" height="90" as="geometry" />
        </mxCell>
        <mxCell id="-KEvSBrfhPXXnUt3q98G-7" value="Réserver un taxi" style="ellipse;whiteSpace=wrap;html=1;" vertex="1" parent="1">
          <mxGeometry x="425.25" y="460" width="196" height="90" as="geometry" />
        </mxCell>
        <mxCell id="-KEvSBrfhPXXnUt3q98G-8" value="Réserver un billet de train" style="ellipse;whiteSpace=wrap;html=1;" vertex="1" parent="1">
          <mxGeometry x="425.25" y="340" width="196" height="90" as="geometry" />
        </mxCell>
        <mxCell id="-KEvSBrfhPXXnUt3q98G-9" value="&lt;div&gt;Organiser un voyage&lt;/div&gt;&lt;div&gt;&lt;br&gt;&lt;/div&gt;" style="ellipse;whiteSpace=wrap;html=1;" vertex="1" parent="1">
          <mxGeometry x="425.25" y="82.5" width="196" height="90" as="geometry" />
        </mxCell>
        <mxCell id="-KEvSBrfhPXXnUt3q98G-20" value="Agence de voyage " style="text;html=1;strokeColor=none;fillColor=none;align=center;verticalAlign=middle;whiteSpace=wrap;rounded=0;" vertex="1" parent="1">
          <mxGeometry x="421.25" y="40" width="200" height="20" as="geometry" />
        </mxCell>
        <mxCell id="-KEvSBrfhPXXnUt3q98G-24" value="" style="edgeStyle=orthogonalEdgeStyle;rounded=0;orthogonalLoop=1;jettySize=auto;html=1;entryX=1;entryY=0.5;entryDx=0;entryDy=0;" edge="1" parent="1" source="-KEvSBrfhPXXnUt3q98G-9" target="-KEvSBrfhPXXnUt3q98G-8">
          <mxGeometry relative="1" as="geometry">
            <mxPoint x="400" y="240" as="sourcePoint" />
            <mxPoint x="723" y="210" as="targetPoint" />
            <Array as="points">
              <mxPoint x="710" y="125" />
              <mxPoint x="710" y="385" />
            </Array>
          </mxGeometry>
        </mxCell>
        <mxCell id="-KEvSBrfhPXXnUt3q98G-25" value="" style="edgeStyle=orthogonalEdgeStyle;rounded=0;orthogonalLoop=1;jettySize=auto;html=1;entryX=1;entryY=0.5;entryDx=0;entryDy=0;" edge="1" parent="1" target="-KEvSBrfhPXXnUt3q98G-7">
          <mxGeometry relative="1" as="geometry">
            <mxPoint x="709.85" y="270" as="sourcePoint" />
            <mxPoint x="621.25" y="535" as="targetPoint" />
            <Array as="points">
              <mxPoint x="710" y="505" />
            </Array>
          </mxGeometry>
        </mxCell>
        <mxCell id="-KEvSBrfhPXXnUt3q98G-36" value="" style="endArrow=classic;html=1;exitX=0.5;exitY=1;exitDx=0;exitDy=0;entryX=0.5;entryY=0;entryDx=0;entryDy=0;" edge="1" parent="1" source="-KEvSBrfhPXXnUt3q98G-9" target="-KEvSBrfhPXXnUt3q98G-5">
          <mxGeometry width="50" height="50" relative="1" as="geometry">
            <mxPoint x="520" y="220" as="sourcePoint" />
            <mxPoint x="570" y="170" as="targetPoint" />
          </mxGeometry>
        </mxCell>
      </root>
    </mxGraphModel>
  </diagram>
</mxfile>
